<?xml version="1.0" encoding="utf-8"?>
<!-- Generator: Adobe Illustrator 15.1.0, SVG Export Plug-In  -->
<!DOCTYPE svg PUBLIC "-//W3C//DTD SVG 1.1//EN" "http://www.w3.org/Graphics/SVG/1.1/DTD/svg11.dtd" [
	<!ENTITY ns_flows "http://ns.adobe.com/Flows/1.0/">
]>
<svg version="1.1"
	 xmlns="http://www.w3.org/2000/svg" xmlns:xlink="http://www.w3.org/1999/xlink" xmlns:a="http://ns.adobe.com/AdobeSVGViewerExtensions/3.0/"
	 x="0px" y="0px" width="30px" height="20px" viewBox="0.5 0.5 30 20" overflow="visible" enable-background="new 0.5 0.5 30 20"
	 xml:space="preserve">
<defs>
</defs>
<path fill="none" stroke="#FFFFFF" stroke-miterlimit="10" d="M0.5,6.72c0-0.799,0.112-1.552,0.334-2.259
	C0.946,4.052,1.1,3.704,1.295,3.415s0.395-0.553,0.6-0.795c0.576-0.669,1.264-1.19,2.064-1.562C4.758,0.686,5.614,0.5,6.525,0.5
	h7.392c0.186,0,0.279,0.093,0.279,0.279v3.068c0,0.187-0.093,0.279-0.279,0.279H6.692C5.967,4.275,5.428,4.652,5.075,5.256
	c-0.354,0.604-0.53,1.39-0.53,2.357v7.058c0.056,0.651,0.265,1.167,0.628,1.548c0.362,0.381,0.869,0.6,1.52,0.655h7.225
	c0.186,0,0.279,0.094,0.279,0.279v3.068c0,0.186-0.093,0.279-0.279,0.279H6.776c-0.558,0-1.051-0.051-1.479-0.153
	s-0.799-0.218-1.115-0.349c-0.707-0.26-1.339-0.684-1.897-1.269c-0.558-0.586-1.014-1.288-1.367-2.106
	c-0.093-0.204-0.186-0.479-0.279-0.823C0.546,15.456,0.5,15.033,0.5,14.531V6.72z"/>
<path fill="none" stroke="#FFFFFF" stroke-miterlimit="10" d="M25.018,20.221c0,0.186-0.093,0.279-0.278,0.279h-3.487
	c-0.186,0-0.279-0.093-0.279-0.279V4.405c0-0.186-0.093-0.279-0.279-0.279h-4.547c-0.186,0-0.279-0.093-0.279-0.279V0.779
	c0-0.186,0.093-0.279,0.279-0.279h13.696c0.186,0,0.279,0.093,0.279,0.279v3.068c0,0.187-0.093,0.279-0.279,0.279h-4.547
	c-0.186,0-0.279,0.093-0.279,0.279V20.221z"/>
</svg>
